<svg xmlns="http://www.w3.org/2000/svg" width="339.706" height="65.249" viewBox="0 0 339.706 65.249"><g transform="translate(0 65.249)"><path d="M16.135-22.534l-8.143-16.2H22.921L26-32.776H19.131L23.5-24l-1.06,3.155,3.183,1.109L28.579-13.8l3.628-6.662,3.081,6.1L27.463,0l-7.42-14.765-3.1,1.542-3.871-7.786Z" fill="#f1c12f" fill-rule="evenodd"/><path d="M35.188-19.169l-10.2-19.565h5.374l8.645,16.583-2.613,5.244Zm7.427-10.222L39.959-24.06,32.31-38.734h5.435Zm.951-1.909-3.875-7.435h7.58Z" fill="#f1c12f" fill-rule="evenodd"/><path d="M23.592-57.9a11.514,11.514,0,0,1,4.04-7.349,11.514,11.514,0,0,1,4.04,7.349h4.246a5.969,5.969,0,0,0-2.708,5,6,6,0,0,0,5.967,5.967A6,6,0,0,0,45.144-52.9,5.982,5.982,0,0,0,45-54.186a5.989,5.989,0,0,1,2.9,3.63,5.943,5.943,0,0,1,3.824-1.387,5.939,5.939,0,0,1,3.544,1.167A18.217,18.217,0,0,0,44.847-40.567H10.421A18.217,18.217,0,0,0,0-50.776a5.938,5.938,0,0,1,3.544-1.167,5.943,5.943,0,0,1,3.824,1.387,5.988,5.988,0,0,1,2.891-3.63A5.974,5.974,0,0,0,10.12-52.9a6,6,0,0,0,5.967,5.967A6,6,0,0,0,22.054-52.9a5.969,5.969,0,0,0-2.708-5Zm19.36,14.844a.658.658,0,0,0-.655-.654H38.369a.658.658,0,0,0-.655.654.658.658,0,0,0,.655.655H42.3A.658.658,0,0,0,42.952-43.056Zm-7.071,0a.658.658,0,0,0-.655-.654H12.966a.658.658,0,0,0-.655.654.658.658,0,0,0,.655.655h22.26A.658.658,0,0,0,35.881-43.056Z" fill="#f1c12f" fill-rule="evenodd"/><path d="M75.643-32.422c0,10.226,7.194,17.181,16.842,17.181,6.624,0,12.768-3.594,14.928-10.364h-2.352C103-20.372,98-17.491,92.485-17.491c-8.64,0-14.4-6.433-14.4-14.931,0-8.594,5.76-15.123,14.352-14.979a13.381,13.381,0,0,1,12.384,7.538h2.352c-2.3-6.433-8.3-9.644-14.64-9.788C82.789-49.651,75.643-42.648,75.643-32.422Z" fill="#f1c12f"/><path d="M146.149-32.422c0-10.37-7.291-17.325-17.037-17.325-9.6,0-16.941,6.955-16.941,17.325S119.366-15.1,129.112-15.1C139.146-15.1,146.149-22.244,146.149-32.422Zm-31.536,0c0-8.882,6.1-15.027,14.547-15.027s14.547,6.193,14.547,15.027c0,8.882-6.193,15.075-14.6,15.075C120.758-17.347,114.613-23.54,114.613-32.422Z" fill="#f1c12f"/><path d="M153.5-49.219v33.594h11.564c9.987,0,16.27-7.435,16.27-16.8,0-9.218-6.235-16.8-16.27-16.8Zm2.442,31.344V-46.969h9.074c8.5,0,13.924,6.481,13.924,14.595,0,8.162-5.473,14.5-13.972,14.5Z" fill="#f1c12f"/><path d="M208.117-49.219H188.731v33.594h19.53v-2.2H191.125V-31.9H207.4v-2.154H191.125V-47.113h16.992Z" fill="#f1c12f"/><path d="M225.995-15.626V-28.44a19.487,19.487,0,0,0,3.314-.192L236.7-15.626h9.547V-16.97l-9.116-14.781c6.668-4.271,6.476-10.606,6.476-17.469h-8.826c0,6.287.432,12.718-8.166,12.718h-.624V-49.22h-8.73v33.594Z" fill="#f1c12f"/><path d="M261.179-23.156V-41.738h3.936V-49.22H248.753v7.482h3.936v18.582h-4.272v7.53h17.034v-7.53Z" fill="#f1c12f"/><path d="M296.893-15.626h3.07V-49.22h-8.778v16.438L274.191-49.364h-3.118v33.738h8.874V-32.135Z" fill="#f1c12f"/><path d="M306.449-32.422c.048,11.472,8.682,17.18,17.226,17.18,6.192,0,12.576-2.686,14.976-9.693a24.439,24.439,0,0,0,.96-9.837H323.723v7.434h7.152c-1.536,3.221-3.744,4.134-7.2,4.134-5.088,0-8.352-3.653-8.352-9.218,0-5.136,2.928-9.364,8.352-9.364,3.408,0,5.616,1.153,7.008,4.032h8.448c-1.632-8.348-8.688-11.85-15.456-11.9C315.131-49.652,306.5-43.895,306.449-32.422Z" fill="#f1c12f"/></g></svg>